<svg xmlns="http://www.w3.org/2000/svg" class="{{ className|default('') }}" xmlns:xlink="http://www.w3.org/1999/xlink" width="709" height="756" fill="none"><defs/><path fill="url(#wallet-A)" d="M3.48 755.92h358.87s-47.5-7.1-64.35-14.19-51.03-14.33-73.66-3.33c-22.08 10.73-58.94 23.2-100.72-17.66-27.1-26.51-68.11-32.18-69.67-26.3l-24.62 47.49-25.85 13.99z"/><path fill="#ffb64b" d="M129.54 710.27s5.8 17.1 6.03 24.62l13.28-1.33 3.3-11.27s-5.07-10.85-5.84-19.34l-12.49-.98-4.28 8.3z"/><path fill="#ff6155" d="M158.79 741.99a5.25 5.25 0 001.51-6.23l-5.16-12.46c-1.56-3.68-6.68-4.56-9.1-1.47l-.2.25a18.91 18.91 0 00-2.76 5.17c-.92 2.64-3.53 4.2-6.46 4.22a2.84 2.84 0 00-2.52 1.11c-.85 1.29-.62 3.56-.15 5.6a11.51 11.51 0 01.3 2.6 8.62 8.62 0 01-5.17 7.6l-1.94.9a3.47 3.47 0 00.97 6.58 15.42 15.42 0 009.71-1.9l20.97-11.97z"/><path fill="#ffb64b" d="M32.08 713.1c-3.3 9.52-7.56 18.26-13.2 25.82h22.5s1.68-11.3 9.33-20.2l-5.94-7.9-12.7 2.28z"/><path fill="url(#wallet-B)" d="M129.6 346.28l-55.47 157.8c-5.42 19.02-3.9 37.17 6.14 70.12l49.27 136.07c8.41-2.06 13.72-1.77 16.75-7.32-2.9-29.42-13.04-137.98-28.09-167.48a20.4 20.4 0 01-.92-16.85l74.95-188.4-62.64 16.06z"/><path fill="#465380" d="M141.18 311.25l45.13.6 79.65 12.8-8.3 46.84-106.09 162.3a121.05 121.05 0 00-18.12 46.53l-2.68 16.23a117.71 117.71 0 01-12.53 36.69l-67.52 85.51c-10.33 3.96-15.49-1.1-18.64-5.65l61.95-185.13 72.59-177.83-37.03-3.86 11.58-35.03z"/><path fill="#ff6155" d="M40.57 754.21a2.16 2.16 0 01-2.13 1.79l-34.92-.08a3.56 3.56 0 01-3.47-3.42H.01a3.21 3.21 0 011.92-3.16l9.72-4.07a11.1 11.1 0 006.07-6.33c.74-1.96 1.83-3.98 3.25-4.57a2.82 2.82 0 012.7.47c2.45 1.61 5.5 1.77 7.73.09 1.57-1.18 3.3-2.1 5.16-2.75l.32-.1c3.69-1.23 7.49 2.32 6.72 6.28l-3.03 15.85z"/><path fill="url(#wallet-C)" d="M138.57 319.06l33.03-104.98c6.62-21.55 13.17-72.16 15.57-105.06 1.1-15.06 7.73-22.34 22.42-25.82 29.06-6.85 43.1-2.13 48.1-6.18 0 0 4.76 1.05 22.26-.74 34.16-3.41 64.76-25.57 93.72-2.4 17.7 14.19 13.15 34.76 20.11 54.54 7.46 21.3 38.43 36.49 43.6 66.43 10.17 59.49-125.84 63.16-125.84 63.16l-30.01 97.66s-55.83-24.42-85.76-15.65c-46.04 13.48-57.2-20.95-57.2-20.95z"/><path fill="#465380" d="M252.45 41.8c-4.3-14.3-9-31.84 7.23-37.1 7.82-2.53 12.82-.87 23.65-2.03 3.34-.36 14.1-2.22 17.43-2.6 7.97-.92 12.43 7.38 10.78 14.43-2.89 12.35-17.25 17.68-19.73 29.76-.4 1.97-.45 4.08-1.47 5.82a9.54 9.54 0 01-4.16 3.4 26.33 26.33 0 01-27.78-3.28l-5.95-8.4z"/><path fill="#ffb64b" d="M254.94 57.58s3.69 26.32 2.69 32.3c0 0 2.44 9.95 13.9 10.12 3.84.06 7.87-1.35 11.53-3.25a18.19 18.19 0 009.02-21.08c-1.83-6.4-3.33-14.01-2.01-18.74"/><path fill="url(#wallet-D)" d="M254.94 57.58s3.69 26.32 2.69 32.3c0 0 2.44 9.95 13.9 10.12 3.83.06 7.84-1.35 11.5-3.23a18.22 18.22 0 009.05-21.14c-1.82-6.4-3.31-14.01-2-18.7"/><g fill="#ffb64b"><path d="M264.84 11.8l4.22-1.27a21.03 21.03 0 0116.58 1.9 19.32 19.32 0 019.69 16.15c.3 9.67-1.43 19.3-5.1 28.25l-.57 1.44a22.87 22.87 0 01-13.36 12.8l-.67.23a14.67 14.67 0 01-11.35-.57 14.64 14.64 0 01-7.24-7.73l-3-7.48a38.06 38.06 0 01-2.44-19.1l1.4-10.6a16.89 16.89 0 0111.84-14.02z"/><path d="M254.3 36.83s-2.65-5.5-6.92-1.85c-5.06 4.34 2.5 20.4 6.5 17.22s2.84-12.1 2.84-12.1l-2.43-3.27z"/></g><path fill="#465380" d="M250.58 33.2c1.07.21 1.83 1.22 2.3 2.2.5 1 .78 2.09.82 3.2.04 1.31-.97 3.35.36 5.3.46.68 2.8 1.1 2.75-1.63 0 0-1.54-13.2-.27-18.34s5.84-14.46 21.13-14.84l-9.93-3.72-14.37 10.33-2.09 10.86-.7 6.63z"/><path fill="url(#wallet-E)" d="M221.5 81.57s-40.25-1.23-66.38 28.3c-43.58 49.22-101.47 68.4-108.16 75.1s-5.57 27.86-5.57 27.86l34.58 18.94 37.9-18.94s49.04-20.06 80.25-18.94l32.32-81.36-4.94-30.95z"/><path fill="#5f4ae5" d="M243.17 230.75h-25.5L213 172.67h34.85l-4.68 58.08z"/><g fill="#f4f6f9"><path d="M246.1 163.5h-31.35l-5.75 9.18h42.84l-5.74-9.18z"/><path d="M217.88 160.67h25.26v5.8h-25.26z"/></g><path fill="#ffb64b" d="M219.95 200.78l11.06.69a18.77 18.77 0 0013.23-4.43l1.56-1.3 1.41-11.8 6.64 7.22a13.73 13.73 0 0011.8 4.48l138.12-20.48-36.25 42.5-111.68 2.06-21.72 1.87a6.52 6.52 0 01-4.99-.54l-10.15-5.5a6.33 6.33 0 013.84-6.2l7.68-3-10.97-2.42a1.56 1.56 0 01-1.16-1.6 1.52 1.52 0 011.58-1.52zM70.32 171.94l75.72 96.4a19.4 19.4 0 013.26 17.75l-5.6 18.77-15.66-.83a1.58 1.58 0 01-1.01-2.7 12.98 12.98 0 015.36-3.27 3.58 3.58 0 002.55-4.03l-2.6-14.64a9.96 9.96 0 00-6.21-7.53c-18.85-7.42-84.08-35.34-86.02-60-.82-10.9 1.07-19.35 6.51-25.25 9.44-10.27 23.7-14.67 23.7-14.67z"/><rect width="405.2" height="302.94" x="264.13" y="216.87" fill="url(#wallet-F)" rx="44.68"/><path fill="#8474ff" d="M622.84 252.4H293.93a7.08 7.08 0 01-5-2.07 7.07 7.07 0 010-10.02 7.07 7.07 0 015-2.07h328.9a7.06 7.06 0 017.09 7.08 7.06 7.06 0 01-7.08 7.08z"/><path fill="url(#wallet-G)" d="M676.57 419.88h-46.6a48.05 48.05 0 010-96.09h78.34v64.38a31.7 31.7 0 01-9.3 22.43 31.71 31.71 0 01-22.44 9.28z"/><path fill="#8474ff" d="M708.31 323.8a38.28 38.28 0 00-38.35-38.26h-.65v38.26h39z"/><g fill="#5f4ae5"><path d="M619.86 384.08a12.3 12.3 0 100-24.6 12.3 12.3 0 000 24.6z"/><path fill-rule="evenodd" d="M491.61 378.16c-4.7-3.28-11.88-7.17-24.1-10-10.63-1.72-17.21-3.18-21.58-6.4-6.53-4.79-10.33-11.95-10.44-20.85-.15-12.66 7.79-23.76 19.96-26.97a27.57 27.57 0 0124.13 4.58 27.57 27.57 0 0110.9 22.01c0 8.7-1.47 12.06-6.63 18 0 0-2.6 3.5-9.05 6.95 3.74.98 9.78 3.3 18.63 8.68a34.41 34.41 0 005.8-4.75c7.44-8.53 10.37-18.1 9.97-30.42a45.94 45.94 0 00-6.71-22.4 18.96 18.96 0 00-3.3-3.94l-4.73-4.43 5.29-7.46a10.48 10.48 0 001.11-10.75 10.47 10.47 0 00-18.49-.89l-4.79 7.42a44.47 44.47 0 00-12.4-2.42 46.47 46.47 0 00-44.6 27.9 46.47 46.47 0 0010.02 51.64l-6.44 8.12a10.53 10.53 0 003.06 14.53 10.42 10.42 0 007.87 1.47 10.42 10.42 0 006.6-4.54l6.37-8.77a329.1 329.1 0 0015.25 2.5c16.37 1.9 28.9 14.26 27 30.85a27.67 27.67 0 01-23.7 24.11 27.34 27.34 0 01-21.86-6.77c-3.32-2.95-8.2-3.86-11.93-1.42a9.48 9.48 0 00-4.25 7.13 9.47 9.47 0 003 7.74 46.14 46.14 0 0038.17 11.9c21.02-2.95 37.53-20.65 39.35-41.87a46.4 46.4 0 00-17.45-40.5"/></g><path fill="url(#wallet-H)" d="M361.76 140.8l-37.26 4.09 11.81 107.66h15.65l9.8-111.75z"/><path fill="url(#wallet-I)" d="M600.85 114.58l-175.98 19.3 179.83 15.79-3.85-35.1z"/><path fill="url(#wallet-J)" d="M604.7 149.67l2.2 19.97 10.64.94-4.68 53.36.58 5.27-1.06.12-2.03 23.23h20.69l8.76-99.82-35.09-3.07z"/><path fill="url(#wallet-K)" d="M362.85 128.43l-1.08 12.38 63.1-6.93-62.02-5.45z"/><path fill="url(#wallet-L)" d="M613.43 229.21l-.58-5.27-.48 5.39 1.06-.12z"/><path fill="url(#wallet-M)" d="M613.43 229.21l-.58-5.27-.48 5.39 1.06-.12z"/><use fill="url(#wallet-N)" xlink:href="#wallet-W"/><use fill="url(#wallet-O)" xlink:href="#wallet-W"/><path fill="url(#wallet-P)" d="M617.53 170.58l-10.64-.94 5.96 54.3 4.68-53.36z"/><path fill="url(#wallet-Q)" d="M617.53 170.58l-10.64-.94 5.96 54.3 4.68-53.36z"/><path fill="url(#wallet-R)" d="M610.34 252.56l2.03-23.23-211.68 23.23h209.65z"/><path fill="url(#wallet-S)" d="M610.34 252.56l2.03-23.23-211.68 23.23h209.65z"/><use fill="url(#wallet-T)" xlink:href="#wallet-X"/><use fill="url(#wallet-U)" xlink:href="#wallet-X"/><use fill="url(#wallet-V)" xlink:href="#wallet-X"/><path fill="#38354d" fill-rule="evenodd" d="M359.73 249.7a7.07 7.07 0 014.52-8.94l19.4-6.35a7.07 7.07 0 015.41.43 7.07 7.07 0 013.52 4.13l4.08 12.45c.14.43.24.86.29 1.3h85.66a3.53 3.53 0 016.3 0h4.93a3.52 3.52 0 115.78 0h124.36l-39.15-119.48a17.41 17.41 0 00-21.96-11.12l-235.72 77.2a17.41 17.41 0 00-11.12 21.95l10.32 31.42h34.39l-1-3zm212.37-27.43a3.53 3.53 0 013.8 1.05 3.53 3.53 0 11-6.05 3.37 3.54 3.54 0 012.25-4.42zm-7.17 4.65a3.53 3.53 0 10-5.37 4.6 3.53 3.53 0 005.37-4.6zm-14.76 2.54a3.53 3.53 0 013.79 1.05 3.53 3.53 0 11-3.8-1.05zm-7.17 4.66a3.53 3.53 0 00-3.8-1.05 3.53 3.53 0 00.83 6.88 3.53 3.53 0 002.97-5.83zm-25.45 6.05a3.53 3.53 0 013.8 1.05 3.53 3.53 0 01-2.98 5.82 3.53 3.53 0 01-3.08-2.45 3.53 3.53 0 012.26-4.45v.03zm-7.17 4.64a3.53 3.53 0 00-3.8-1.05v-.02a3.52 3.52 0 00-2.25 4.44 3.53 3.53 0 006.51.54 3.53 3.53 0 00-.47-3.9z"/><path fill="#465380" d="M392.57 238.97a7.07 7.07 0 00-3.53-4.11 7.08 7.08 0 00-5.4-.41l-19.4 6.35a7.07 7.07 0 00-4.52 8.93l.98 3h36.23a6.88 6.88 0 00-.29-1.3l-4.08-12.46zm92.09 11.95a3.51 3.51 0 00-2.06 1.77h6.3a3.52 3.52 0 00-4.24-1.77zm15.41-1.33a3.53 3.53 0 00-2.97-2.47 3.53 3.53 0 00-3.28 5.57h5.78a3.52 3.52 0 00.47-3.1zm8.71.86a3.54 3.54 0 002.45-3.08 3.53 3.53 0 00-1.91-3.44 3.54 3.54 0 00-3.91.47 3.53 3.53 0 00-1.05 3.79 3.53 3.53 0 004.42 2.26zm10.97-3.6a3.53 3.53 0 00.53-6.5 3.53 3.53 0 00-4.95 4.25 3.53 3.53 0 004.42 2.26zm21.62-7.09a3.53 3.53 0 002.45-3.08 3.53 3.53 0 00-1.91-3.43 3.53 3.53 0 00-4.96 4.26 3.54 3.54 0 004.42 2.26zm11-3.6a3.53 3.53 0 10-4.42-2.25 3.54 3.54 0 004.42 2.26zm10.96-3.6a3.53 3.53 0 10-2.14-6.75 3.53 3.53 0 002.14 6.77zm10.97-3.59a3.53 3.53 0 10-3.37-6.04 3.53 3.53 0 00-1.06 3.79 3.54 3.54 0 004.43 2.25z"/><defs><linearGradient id="wallet-A" x1="3.48" x2="362.35" y1="755.92" y2="755.92" xlink:href="#wallet-Y"><stop stop-color="#e4e6ed"/><stop stop-color="#aba2ff"/><stop offset=".19" stop-color="#afa7ff"/><stop offset=".43" stop-color="#bcb6fe"/><stop offset=".69" stop-color="#d2cffc"/><stop offset=".96" stop-color="#eff1f9"/><stop offset="1" stop-color="#f4f6f9"/><stop offset="1" stop-color="#f4f6f9"/></linearGradient><linearGradient id="wallet-B" x1="149.19" x2="314.43" y1="756.32" y2="695.24" xlink:href="#wallet-Y"><stop stop-color="#38354d"/><stop offset="1" stop-color="#465380"/></linearGradient><linearGradient id="wallet-C1" xlink:href="#wallet-Y"><stop stop-color="#e4e6ed"/><stop stop-color="#e4e6ed"/><stop offset=".52" stop-color="#e9ebf1"/><stop offset="1" stop-color="#f4f6f9"/><stop offset="1" stop-color="#f4f6f9"/></linearGradient><linearGradient id="wallet-C" x1="437.53" x2="338.73" y1="216.41" y2="-69.34" xlink:href="#wallet-C1"/><linearGradient id="wallet-D" x1="298.35" x2="298.35" y1="95.01" y2="39.22" xlink:href="#wallet-Y"><stop stop-color="#ffb64b"/><stop offset="1" stop-color="#5f4ae5"/></linearGradient><linearGradient id="wallet-E" x1="363.58" x2="293.78" y1="262.38" y2="-29.83" xlink:href="#wallet-C1"/><linearGradient id="wallet-F1" xlink:href="#wallet-Y"><stop stop-color="#e4e6ed"/><stop stop-color="#e4e6ed"/><stop offset=".17" stop-color="#e0e1ee"/><stop offset=".36" stop-color="#d3d2f0"/><stop offset=".58" stop-color="#beb9f4"/><stop offset=".81" stop-color="#a297f9"/><stop offset="1" stop-color="#8474ff"/></linearGradient><linearGradient id="wallet-F" x1="289.53" x2="234.59" y1="233.99" y2="551.6" xlink:href="#wallet-F1"/><linearGradient id="wallet-G" x1="740.9" x2="663.19" y1="356.97" y2="316.29" xlink:href="#wallet-F1"/><linearGradient id="wallet-H1" xlink:href="#wallet-Y"><stop stop-color="#ffb64b"/><stop offset=".13" stop-color="#feb850"/><stop offset=".29" stop-color="#fcbc5f"/><stop offset=".47" stop-color="#f8c378"/><stop offset=".66" stop-color="#f2cd9a"/><stop offset=".85" stop-color="#ebdac6"/><stop offset="1" stop-color="#e4e6ed"/></linearGradient><linearGradient id="wallet-H" x1="335.72" x2="234.78" y1="-26.95" y2="47.84" xlink:href="#wallet-H1"/><linearGradient id="wallet-I" x1="105.01" x2="102.59" y1="-546.93" y2="-348.47" xlink:href="#wallet-H1"/><linearGradient id="wallet-J1" xlink:href="#wallet-Y"><stop stop-color="#4bb065"/><stop offset=".14" stop-color="#50b26a"/><stop offset=".3" stop-color="#5fb777"/><stop offset=".49" stop-color="#78c08d"/><stop offset=".68" stop-color="#9accab"/><stop offset=".88" stop-color="#c6dbd2"/><stop offset="1" stop-color="#e4e6ed"/></linearGradient><linearGradient id="wallet-J" x1="631.07" x2="514.69" y1="-33.58" y2="7.5" xlink:href="#wallet-J1"/><linearGradient id="wallet-K" x1="-64.22" x2="-66.66" y1="-16.22" y2="182.25" xlink:href="#wallet-J1"/><linearGradient id="wallet-L" x1="698.04" x2="612.41" y1="-668.47" y2="-658.21" xlink:href="#wallet-H1"/><linearGradient id="wallet-M" x1="647.65" x2="562.02" y1="-98.93" y2="-88.68" xlink:href="#wallet-J1"/><linearGradient id="wallet-N" x1="372.24" x2="358.31" y1="-564.1" y2="-362.97" xlink:href="#wallet-H1"/><linearGradient id="wallet-O" x1="316.65" x2="302.72" y1="3.77" y2="204.9" xlink:href="#wallet-J1"/><linearGradient id="wallet-P" x1="635.82" x2="550.1" y1="-102.38" y2="-92.08" xlink:href="#wallet-J1"/><linearGradient id="wallet-Q1" xlink:href="#wallet-Y"><stop stop-color="#4bb065"/><stop offset=".13" stop-color="#4fb269" stop-opacity=".97"/><stop offset=".28" stop-color="#5cb674" stop-opacity=".9"/><stop offset=".45" stop-color="#72be87" stop-opacity=".75"/><stop offset=".63" stop-color="#90c8a2" stop-opacity=".55"/><stop offset=".81" stop-color="#b6d6c4" stop-opacity=".3"/><stop offset="1" stop-color="#e4e6ed" stop-opacity=".01"/></linearGradient><linearGradient id="wallet-Q" x1="600.66" x2="459.37" y1="-156.14" y2="-151.54" xlink:href="#wallet-Q1"/><linearGradient id="wallet-R" x1="-323.87" x2="-324.63" y1="30.38" y2="228.34" xlink:href="#wallet-J1"/><linearGradient id="wallet-S" x1="201.65" x2="200.06" y1="188.44" y2="311.7" xlink:href="#wallet-Q1"/><linearGradient id="wallet-T" x1="371.74" x2="359.93" y1="-557.34" y2="-356.6" xlink:href="#wallet-H1"/><linearGradient id="wallet-U" x1="320.81" x2="309" y1="12.02" y2="212.76" xlink:href="#wallet-J1"/><linearGradient id="wallet-V" x1="578.53" x2="550.71" y1="129.76" y2="271.4" xlink:href="#wallet-Q1"/><linearGradient id="wallet-Y" gradientUnits="userSpaceOnUse"/><path id="wallet-W" d="M373.72 252.56l9-102.6 224.17 19.68-2.2-19.97-179.83-15.79-63.1 6.93-9.82 111.75h21.77z"/><path id="wallet-X" d="M373.72 252.56h26.97l211.68-23.23.48-5.39-5.96-54.3-224.16-19.68-9.01 102.6z"/></defs></svg>
